<svg width="65" height="24" viewBox="0 0 65 24" fill="none" xmlns="http://www.w3.org/2000/svg">
<circle cx="12" cy="12" r="7.5" stroke="#3DCF8E" stroke-width="9"/>
<path d="M31.9732 4.45795C32.0612 4.45795 32.1352 4.46195 32.1952 4.46995C32.2552 4.47795 32.3092 4.49395 32.3572 4.51795C32.4052 4.53795 32.4512 4.56795 32.4952 4.60795C32.5392 4.64795 32.5892 4.70195 32.6452 4.76995L36.7972 10.02C36.7812 9.85195 36.7692 9.68995 36.7612 9.53395C36.7532 9.37395 36.7492 9.22395 36.7492 9.08395V4.45795H38.5372V13.2H37.4812C37.3252 13.2 37.1932 13.176 37.0852 13.128C36.9772 13.08 36.8732 12.992 36.7732 12.864L32.6512 7.65595C32.6632 7.80795 32.6732 7.95795 32.6812 8.10595C32.6892 8.24995 32.6932 8.38595 32.6932 8.51395V13.2H30.9052V4.45795H31.9732ZM45.6035 4.45795V6.01795H42.0155V8.05795H44.7635V9.55795H42.0155V11.64H45.6035V13.2H39.9755V4.45795H45.6035ZM46.1006 4.45795H47.8046C47.9806 4.45795 48.1266 4.49795 48.2426 4.57795C48.3626 4.65795 48.4406 4.76395 48.4766 4.89595L49.6766 9.45595C49.7166 9.60395 49.7566 9.76195 49.7966 9.92995C49.8366 10.098 49.8666 10.274 49.8866 10.458C49.9266 10.27 49.9706 10.094 50.0186 9.92995C50.0666 9.76195 50.1126 9.60395 50.1566 9.45595L51.5726 4.89595C51.6086 4.78395 51.6846 4.68395 51.8006 4.59595C51.9206 4.50395 52.0646 4.45795 52.2326 4.45795H52.8326C53.0086 4.45795 53.1526 4.49795 53.2646 4.57795C53.3806 4.65395 53.4606 4.75995 53.5046 4.89595L54.9086 9.45595C54.9526 9.59595 54.9986 9.74595 55.0466 9.90595C55.0946 10.062 55.1366 10.23 55.1726 10.41C55.2046 10.234 55.2366 10.066 55.2686 9.90595C55.3046 9.74595 55.3406 9.59595 55.3766 9.45595L56.5766 4.89595C56.6086 4.77995 56.6846 4.67795 56.8046 4.58995C56.9246 4.50195 57.0686 4.45795 57.2366 4.45795H58.8326L56.1326 13.2H54.2966L52.6526 7.78195C52.6246 7.69795 52.5946 7.60595 52.5626 7.50595C52.5346 7.40595 52.5066 7.29995 52.4786 7.18795C52.4506 7.29995 52.4206 7.40595 52.3886 7.50595C52.3606 7.60595 52.3326 7.69795 52.3046 7.78195L50.6366 13.2H48.8006L46.1006 4.45795ZM64.4881 6.23395C64.4281 6.32995 64.3641 6.40195 64.2961 6.44995C64.2321 6.49795 64.1481 6.52195 64.0441 6.52195C63.9521 6.52195 63.8521 6.49395 63.7441 6.43795C63.6401 6.37795 63.5201 6.31195 63.3841 6.23995C63.2521 6.16795 63.1001 6.10395 62.9281 6.04795C62.7561 5.98795 62.5601 5.95795 62.3401 5.95795C61.9601 5.95795 61.6761 6.03995 61.4881 6.20395C61.3041 6.36395 61.2121 6.58195 61.2121 6.85795C61.2121 7.03395 61.2681 7.17995 61.3801 7.29595C61.4921 7.41195 61.6381 7.51195 61.8181 7.59595C62.0021 7.67995 62.2101 7.75795 62.4421 7.82995C62.6781 7.89795 62.9181 7.97595 63.1621 8.06395C63.4061 8.14795 63.6441 8.24795 63.8761 8.36395C64.1121 8.47995 64.3201 8.62795 64.5001 8.80795C64.6841 8.98795 64.8321 9.20795 64.9441 9.46795C65.0561 9.72395 65.1121 10.034 65.1121 10.398C65.1121 10.802 65.0421 11.18 64.9021 11.532C64.7621 11.884 64.5581 12.192 64.2901 12.456C64.0261 12.716 63.6981 12.922 63.3061 13.074C62.9181 13.222 62.4761 13.296 61.9801 13.296C61.7081 13.296 61.4301 13.268 61.1461 13.212C60.8661 13.156 60.5941 13.078 60.3301 12.978C60.0661 12.874 59.8181 12.752 59.5861 12.612C59.3541 12.472 59.1521 12.316 58.9801 12.144L59.5801 11.196C59.6241 11.124 59.6861 11.066 59.7661 11.022C59.8461 10.978 59.9321 10.956 60.0241 10.956C60.1441 10.956 60.2641 10.994 60.3841 11.07C60.5081 11.146 60.6461 11.23 60.7981 11.322C60.9541 11.414 61.1321 11.498 61.3321 11.574C61.5321 11.65 61.7681 11.688 62.0401 11.688C62.4081 11.688 62.6941 11.608 62.8981 11.448C63.1021 11.284 63.2041 11.026 63.2041 10.674C63.2041 10.47 63.1481 10.304 63.0361 10.176C62.9241 10.048 62.7761 9.94195 62.5921 9.85795C62.4121 9.77395 62.2061 9.69995 61.9741 9.63595C61.7421 9.57195 61.5041 9.50195 61.2601 9.42595C61.0161 9.34595 60.7781 9.24995 60.5461 9.13795C60.3141 9.02195 60.1061 8.87195 59.9221 8.68795C59.7421 8.49995 59.5961 8.26795 59.4841 7.99195C59.3721 7.71195 59.3161 7.36795 59.3161 6.95995C59.3161 6.63195 59.3821 6.31195 59.5141 5.99995C59.6461 5.68795 59.8401 5.40995 60.0961 5.16595C60.3521 4.92195 60.6661 4.72795 61.0381 4.58395C61.4101 4.43595 61.8361 4.36195 62.3161 4.36195C62.5841 4.36195 62.8441 4.38395 63.0961 4.42795C63.3521 4.46795 63.5941 4.52995 63.8221 4.61395C64.0501 4.69395 64.2621 4.79195 64.4581 4.90795C64.6581 5.01995 64.8361 5.14795 64.9921 5.29195L64.4881 6.23395Z" fill="white"/>
<path d="M41.3988 18C41.8972 18 42.2962 18.1568 42.5958 18.4704C42.8954 18.784 43.0452 19.2068 43.0452 19.7388V22.6032H41.5584V20.1672C41.5584 19.9096 41.4884 19.7066 41.3484 19.5582C41.2084 19.4098 41.0208 19.3356 40.7856 19.3356C40.5392 19.3412 40.3362 19.4224 40.1766 19.5792C40.017 19.736 39.9232 19.9432 39.8952 20.2008V22.6032H38.4V18.0588H39.8952V18.798C40.0576 18.5348 40.2662 18.336 40.521 18.2016C40.7758 18.0672 41.0684 18 41.3988 18ZM46.296 18.0084C46.7888 18.0084 47.2228 18.105 47.598 18.2982C47.9732 18.4914 48.2644 18.763 48.4716 19.113C48.6788 19.463 48.7824 19.8676 48.7824 20.3268C48.7824 20.7916 48.6788 21.199 48.4716 21.549C48.2644 21.899 47.9732 22.1706 47.598 22.3638C47.2228 22.557 46.7888 22.6536 46.296 22.6536C45.8032 22.6536 45.3692 22.557 44.994 22.3638C44.6188 22.1706 44.329 21.899 44.1246 21.549C43.9202 21.199 43.818 20.7916 43.818 20.3268C43.818 19.8676 43.9202 19.463 44.1246 19.113C44.329 18.763 44.6188 18.4914 44.994 18.2982C45.3692 18.105 45.8032 18.0084 46.296 18.0084ZM46.296 19.218C46.0048 19.218 45.7696 19.3216 45.5904 19.5288C45.4112 19.736 45.3216 20.0076 45.3216 20.3436C45.3216 20.6852 45.4112 20.9596 45.5904 21.1668C45.7696 21.374 46.0048 21.4776 46.296 21.4776C46.5928 21.4776 46.8308 21.374 47.01 21.1668C47.1892 20.9596 47.2788 20.6852 47.2788 20.3436C47.2788 20.0076 47.1878 19.736 47.0058 19.5288C46.8238 19.3216 46.5872 19.218 46.296 19.218ZM48.9168 18.0588H50.4372L51.3444 21.1332L52.2348 18.0588H53.6628L54.5616 21.1332L55.4688 18.0588H56.9304L55.2672 22.6032H53.7888L52.9236 19.7976L52.05 22.6032H50.5716L48.9168 18.0588Z" fill="#3DCF8E"/>
</svg>
