<svg width="65" height="24" viewBox="0 0 65 24" fill="none" xmlns="http://www.w3.org/2000/svg">
<circle cx="12" cy="12" r="7.5" stroke="#3DCF8E" stroke-width="9"/>
<path d="M31.9732 4.45819C32.0612 4.45819 32.1352 4.46219 32.1952 4.47019C32.2552 4.47819 32.3092 4.49419 32.3572 4.51819C32.4052 4.53819 32.4512 4.56819 32.4952 4.60819C32.5392 4.64819 32.5892 4.70219 32.6452 4.77019L36.7972 10.0202C36.7812 9.85219 36.7692 9.69019 36.7612 9.5342C36.7532 9.37419 36.7492 9.22419 36.7492 9.08419V4.45819H38.5372V13.2002H37.4812C37.3252 13.2002 37.1932 13.1762 37.0852 13.1282C36.9772 13.0802 36.8732 12.9922 36.7732 12.8642L32.6512 7.65619C32.6632 7.80819 32.6732 7.95819 32.6812 8.10619C32.6892 8.25019 32.6932 8.38619 32.6932 8.51419V13.2002H30.9052V4.45819H31.9732ZM45.6035 4.45819V6.01819H42.0155V8.05819H44.7635V9.55819H42.0155V11.6402H45.6035V13.2002H39.9755V4.45819H45.6035ZM46.1006 4.45819H47.8046C47.9806 4.45819 48.1266 4.49819 48.2426 4.57819C48.3626 4.65819 48.4406 4.76419 48.4766 4.89619L49.6766 9.45619C49.7166 9.60419 49.7566 9.76219 49.7966 9.93019C49.8366 10.0982 49.8666 10.2742 49.8866 10.4582C49.9266 10.2702 49.9706 10.0942 50.0186 9.93019C50.0666 9.76219 50.1126 9.60419 50.1566 9.45619L51.5726 4.89619C51.6086 4.78419 51.6846 4.68419 51.8006 4.59619C51.9206 4.50419 52.0646 4.45819 52.2326 4.45819H52.8326C53.0086 4.45819 53.1526 4.49819 53.2646 4.57819C53.3806 4.65419 53.4606 4.76019 53.5046 4.89619L54.9086 9.45619C54.9526 9.59619 54.9986 9.74619 55.0466 9.90619C55.0946 10.0622 55.1366 10.2302 55.1726 10.4102C55.2046 10.2342 55.2366 10.0662 55.2686 9.90619C55.3046 9.74619 55.3406 9.59619 55.3766 9.45619L56.5766 4.89619C56.6086 4.78019 56.6846 4.67819 56.8046 4.59019C56.9246 4.50219 57.0686 4.45819 57.2366 4.45819H58.8326L56.1326 13.2002H54.2966L52.6526 7.78219C52.6246 7.69819 52.5946 7.60619 52.5626 7.50619C52.5346 7.40619 52.5066 7.30019 52.4786 7.18819C52.4506 7.30019 52.4206 7.40619 52.3886 7.50619C52.3606 7.60619 52.3326 7.69819 52.3046 7.78219L50.6366 13.2002H48.8006L46.1006 4.45819ZM64.4881 6.23419C64.4281 6.33019 64.3641 6.40219 64.2961 6.45019C64.2321 6.49819 64.1481 6.52219 64.0441 6.52219C63.9521 6.52219 63.8521 6.49419 63.7441 6.43819C63.6401 6.37819 63.5201 6.31219 63.3841 6.24019C63.2521 6.16819 63.1001 6.10419 62.9281 6.04819C62.7561 5.98819 62.5601 5.95819 62.3401 5.95819C61.9601 5.95819 61.6761 6.04019 61.4881 6.20419C61.3041 6.36419 61.2121 6.58219 61.2121 6.85819C61.2121 7.03419 61.2681 7.18019 61.3801 7.29619C61.4921 7.41219 61.6381 7.51219 61.8181 7.59619C62.0021 7.68019 62.2101 7.75819 62.4421 7.83019C62.6781 7.89819 62.9181 7.97619 63.1621 8.06419C63.4061 8.14819 63.6441 8.24819 63.8761 8.36419C64.1121 8.48019 64.3201 8.62819 64.5001 8.80819C64.6841 8.98819 64.8321 9.20819 64.9441 9.46819C65.0561 9.72419 65.1121 10.0342 65.1121 10.3982C65.1121 10.8022 65.0421 11.1802 64.9021 11.5322C64.7621 11.8842 64.5581 12.1922 64.2901 12.4562C64.0261 12.7162 63.6981 12.9222 63.3061 13.0742C62.9181 13.2222 62.4761 13.2962 61.9801 13.2962C61.7081 13.2962 61.4301 13.2682 61.1461 13.2122C60.8661 13.1562 60.5941 13.0782 60.3301 12.9782C60.0661 12.8742 59.8181 12.7522 59.5861 12.6122C59.3541 12.4722 59.1521 12.3162 58.9801 12.1442L59.5801 11.1962C59.6241 11.1242 59.6861 11.0662 59.7661 11.0222C59.8461 10.9782 59.9321 10.9562 60.0241 10.9562C60.1441 10.9562 60.2641 10.9942 60.3841 11.0702C60.5081 11.1462 60.6461 11.2302 60.7981 11.3222C60.9541 11.4142 61.1321 11.4982 61.3321 11.5742C61.5321 11.6502 61.7681 11.6882 62.0401 11.6882C62.4081 11.6882 62.6941 11.6082 62.8981 11.4482C63.1021 11.2842 63.2041 11.0262 63.2041 10.6742C63.2041 10.4702 63.1481 10.3042 63.0361 10.1762C62.9241 10.0482 62.7761 9.94219 62.5921 9.85819C62.4121 9.77419 62.2061 9.70019 61.9741 9.63619C61.7421 9.57219 61.5041 9.50219 61.2601 9.42619C61.0161 9.34619 60.7781 9.25019 60.5461 9.13819C60.3141 9.02219 60.1061 8.87219 59.9221 8.68819C59.7421 8.50019 59.5961 8.26819 59.4841 7.99219C59.3721 7.71219 59.3161 7.36819 59.3161 6.96019C59.3161 6.63219 59.3821 6.31219 59.5141 6.00019C59.6461 5.68819 59.8401 5.41019 60.0961 5.16619C60.3521 4.92219 60.6661 4.72819 61.0381 4.58419C61.4101 4.43619 61.8361 4.36219 62.3161 4.36219C62.5841 4.36219 62.8441 4.38419 63.0961 4.42819C63.3521 4.46819 63.5941 4.53019 63.8221 4.61419C64.0501 4.69419 64.2621 4.79219 64.4581 4.90819C64.6581 5.02019 64.8361 5.14819 64.9921 5.29219L64.4881 6.23419Z" fill="white"/>
<path d="M41.3988 18C41.8972 18 42.2962 18.1568 42.5958 18.4704C42.8954 18.784 43.0452 19.2068 43.0452 19.7388V22.6032H41.5584V20.1672C41.5584 19.9096 41.4884 19.7066 41.3484 19.5582C41.2084 19.4098 41.0208 19.3356 40.7856 19.3356C40.5392 19.3412 40.3362 19.4224 40.1766 19.5792C40.017 19.736 39.9232 19.9432 39.8952 20.2008V22.6032H38.4V18.0588H39.8952V18.798C40.0576 18.5348 40.2662 18.336 40.521 18.2016C40.7758 18.0672 41.0684 18 41.3988 18ZM46.296 18.0084C46.7888 18.0084 47.2228 18.105 47.598 18.2982C47.9732 18.4914 48.2644 18.763 48.4716 19.113C48.6788 19.463 48.7824 19.8676 48.7824 20.3268C48.7824 20.7916 48.6788 21.199 48.4716 21.549C48.2644 21.899 47.9732 22.1706 47.598 22.3638C47.2228 22.557 46.7888 22.6536 46.296 22.6536C45.8032 22.6536 45.3692 22.557 44.994 22.3638C44.6188 22.1706 44.329 21.899 44.1246 21.549C43.9202 21.199 43.818 20.7916 43.818 20.3268C43.818 19.8676 43.9202 19.463 44.1246 19.113C44.329 18.763 44.6188 18.4914 44.994 18.2982C45.3692 18.105 45.8032 18.0084 46.296 18.0084ZM46.296 19.218C46.0048 19.218 45.7696 19.3216 45.5904 19.5288C45.4112 19.736 45.3216 20.0076 45.3216 20.3436C45.3216 20.6852 45.4112 20.9596 45.5904 21.1668C45.7696 21.374 46.0048 21.4776 46.296 21.4776C46.5928 21.4776 46.8308 21.374 47.01 21.1668C47.1892 20.9596 47.2788 20.6852 47.2788 20.3436C47.2788 20.0076 47.1878 19.736 47.0058 19.5288C46.8238 19.3216 46.5872 19.218 46.296 19.218ZM48.9168 18.0588H50.4372L51.3444 21.1332L52.2348 18.0588H53.6628L54.5616 21.1332L55.4688 18.0588H56.9304L55.2672 22.6032H53.7888L52.9236 19.7976L52.05 22.6032H50.5716L48.9168 18.0588Z" fill="#3DCF8E"/>
</svg>
